ModelForces
version=1
nRows=4
nColumns=155
inDegrees=no

This file contains the forces exerted on a model during a simulation.

A force is a generalized force, meaning that it can be either a force (N) or a torque (Nm).

Units are S.I. units (second, meters, Newtons, ...)
Angles are in degrees.

endheader
time	glut_med1_r	glut_med2_r	glut_med3_r	glut_min1_r	glut_min2_r	glut_min3_r	semimem_r	semiten_r	bifemlh_r	bifemsh_r	sar_r	add_long_r	add_brev_r	add_mag1_r	add_mag2_r	add_mag3_r	tfl_r	pect_r	grac_r	glut_max1_r	glut_max2_r	glut_max3_r	iliacus_r	psoas_r	quad_fem_r	gem_r	peri_r	rect_fem_r	vas_med_r	vas_int_r	vas_lat_r	med_gas_r	lat_gas_r	soleus_r	tib_post_r	flex_dig_r	flex_hal_r	tib_ant_r	per_brev_r	per_long_r	per_tert_r	ext_dig_r	ext_hal_r	glut_med1_l	glut_med2_l	glut_med3_l	glut_min1_l	glut_min2_l	glut_min3_l	semimem_l	semiten_l	bifemlh_l	bifemsh_l	sar_l	add_long_l	add_brev_l	add_mag1_l	add_mag2_l	add_mag3_l	tfl_l	pect_l	grac_l	glut_max1_l	glut_max2_l	glut_max3_l	iliacus_l	psoas_l	quad_fem_l	gem_l	peri_l	rect_fem_l	vas_med_l	vas_int_l	vas_lat_l	med_gas_l	lat_gas_l	soleus_l	tib_post_l	flex_dig_l	flex_hal_l	tib_ant_l	per_brev_l	per_long_l	per_tert_l	ext_dig_l	ext_hal_l	ercspn_r	ercspn_l	intobl_r	intobl_l	extobl_r	extobl_l	femur_lat_meniscii_r.femur_lat_r.force.X	femur_lat_meniscii_r.femur_lat_r.force.Y	femur_lat_meniscii_r.femur_lat_r.force.Z	femur_lat_meniscii_r.femur_lat_r.torque.X	femur_lat_meniscii_r.femur_lat_r.torque.Y	femur_lat_meniscii_r.femur_lat_r.torque.Z	femur_lat_meniscii_r.meniscus_lat_r.force.X	femur_lat_meniscii_r.meniscus_lat_r.force.Y	femur_lat_meniscii_r.meniscus_lat_r.force.Z	femur_lat_meniscii_r.meniscus_lat_r.torque.X	femur_lat_meniscii_r.meniscus_lat_r.torque.Y	femur_lat_meniscii_r.meniscus_lat_r.torque.Z	femur_med_meniscii_r.femur_med_r.force.X	femur_med_meniscii_r.femur_med_r.force.Y	femur_med_meniscii_r.femur_med_r.force.Z	femur_med_meniscii_r.femur_med_r.torque.X	femur_med_meniscii_r.femur_med_r.torque.Y	femur_med_meniscii_r.femur_med_r.torque.Z	femur_med_meniscii_r.meniscus_med_r.force.X	femur_med_meniscii_r.meniscus_med_r.force.Y	femur_med_meniscii_r.meniscus_med_r.force.Z	femur_med_meniscii_r.meniscus_med_r.torque.X	femur_med_meniscii_r.meniscus_med_r.torque.Y	femur_med_meniscii_r.meniscus_med_r.torque.Z	femur_med_tibia_r.tibia_upper_r.force.X	femur_med_tibia_r.tibia_upper_r.force.Y	femur_med_tibia_r.tibia_upper_r.force.Z	femur_med_tibia_r.tibia_upper_r.torque.X	femur_med_tibia_r.tibia_upper_r.torque.Y	femur_med_tibia_r.tibia_upper_r.torque.Z	femur_med_tibia_r.femur_med_r.force.X	femur_med_tibia_r.femur_med_r.force.Y	femur_med_tibia_r.femur_med_r.force.Z	femur_med_tibia_r.femur_med_r.torque.X	femur_med_tibia_r.femur_med_r.torque.Y	femur_med_tibia_r.femur_med_r.torque.Z	femur_lat_tibia_r.tibia_upper_r.force.X	femur_lat_tibia_r.tibia_upper_r.force.Y	femur_lat_tibia_r.tibia_upper_r.force.Z	femur_lat_tibia_r.tibia_upper_r.torque.X	femur_lat_tibia_r.tibia_upper_r.torque.Y	femur_lat_tibia_r.tibia_upper_r.torque.Z	femur_lat_tibia_r.femur_lat_r.force.X	femur_lat_tibia_r.femur_lat_r.force.Y	femur_lat_tibia_r.femur_lat_r.force.Z	femur_lat_tibia_r.femur_lat_r.torque.X	femur_lat_tibia_r.femur_lat_r.torque.Y	femur_lat_tibia_r.femur_lat_r.torque.Z	aACL_R	pACL_R	aPCL_R	pPCL_R	aMCL_R	mMCL_R	pMCL_R	aLCL_R	mLCL_R	pLCL_R	aPCL_L	pPCL_L	aMCL_L	aLCL_L
      0.17176128	     11.09251925	      8.10221467	      8.71122241	      3.74545917	      4.36099084	      4.69702225	      0.00000000	    166.38973151	    173.96448844	    334.78862550	    126.24371657	      8.06100595	      5.81479066	      4.05498048	      3.53116432	      5.93843943	      6.21304462	      3.16083280	     97.71165226	      5.23088863	      7.95697625	      5.97675823	     27.09885174	     18.01798191	      5.14721786	      3.58207819	      6.15597734	     51.15572614	     29.54244072	     31.71497374	     43.01457900	      0.00000000	      0.00000000	      0.00000000	      0.00000000	      0.00000000	      0.00000000	     37.98831789	      3.76877337	      4.45576875	     41.59609853	     38.30866920	      9.83550638	     11.09251925	      8.10221467	      8.71122241	      3.74545917	      4.36099084	      4.69702225	      0.00000000	      5.99274864	     11.83201558	     10.24453557	      2.13735582	      8.06100595	      5.81479066	      4.05498048	      3.53116432	      5.93843943	      5.30424330	      3.16083280	      2.20533852	      5.23088863	      7.95697625	      5.97675823	     27.09885174	     18.01798191	      5.14721786	      3.58207819	      6.15597734	     16.44148182	      0.00000000	      0.00000000	      0.00000000	     20.96565591	      9.88137363	     49.37644585	     50.24601293	      5.28082319	      4.71765369	     12.81592251	      6.84281960	     17.73242807	      2.78611890	      8.55428798	      2.69451615	     35.25259030	     35.25259030	     13.06846447	     13.06846447	     30.47050445	     30.47050445	    418.49851676	    299.11996101	    107.55873412	    -50.55346097	     10.41547129	    167.72597539	   -418.49851676	   -299.11996101	   -107.55873412	      9.68067926	    -13.36041027	     -0.50488728	    755.80257209	    439.78742016	    -56.28708079	     30.97559263	    -14.06914249	    301.07005283	   -755.80257209	   -439.78742016	     56.28708079	     -8.27323165	     13.46386002	     -0.96020589	   -139.15056947	   -297.11373452	     99.13913315	     -6.32935176	      4.25123472	      3.94418971	    139.15056947	    297.11373452	    -99.13913315	     45.26392735	     -2.69256646	     55.37517212	      0.00000000	      0.00000000	      0.00000000	      0.00000000	      0.00000000	      0.00000000	      0.00000000	      0.00000000	      0.00000000	      0.00000000	      0.00000000	      0.00000000	     28.20655822	     18.55740666	    826.27970423	    529.41211914	      0.00000000	      0.00000000	      0.00000000	    -18.95839300	      0.00000000	      0.00000000	      0.00000000	      0.00000000	      0.00000001	      0.00000000
      0.17199562	     11.08192790	      8.09470577	      8.70305165	      3.74213106	      4.35735209	      4.69237153	      0.00000000	    166.32730658	    173.84176912	    334.33201900	    126.15817465	      8.05344876	      5.80967192	      4.05627284	      3.52783145	      5.93239856	      6.20325617	      3.15800422	     97.64085718	      5.22602315	      7.94955791	      5.97109792	     27.08503258	     18.00222647	      5.14254431	      3.57980090	      6.15290534	     51.31092086	     29.52168740	     31.69167307	     42.98190534	      0.00000000	      0.00000000	      0.00000000	      0.00000000	      0.00000000	      0.00000000	     38.02480953	      3.77557337	      4.47541961	      0.00000000	     38.43239328	      9.86343214	     11.08192790	      8.09470577	      8.70305165	      3.74213106	      4.35735209	      4.69237153	      0.00000000	      5.98683518	     11.82016965	     10.23522343	      2.13546551	      8.05344876	      5.80967192	      4.05627284	      3.52783145	      5.93239856	      5.30051647	      3.15800422	      2.20335372	      5.22602315	      7.94955791	      5.97109792	     27.08503258	     18.00222647	      5.14254431	      3.57980090	      6.15290534	     16.42395346	      0.00000000	      0.00000000	      0.00000000	     20.95809703	      9.87706585	     49.33131249	     50.22337534	      5.27496426	      4.71205585	     12.80288341	      6.83545543	     17.71832050	      2.78369120	      8.54676475	      2.69245248	     35.22119527	     35.22119527	     13.05587880	     13.05587880	     30.45910779	     30.45910779	    423.74112930	    305.12048317	    109.39940628	    -51.43667795	     10.55467653	    169.78592261	   -423.74112930	   -305.12048317	   -109.39940628	      9.86146660	    -13.54722817	     -0.40460291	    750.43240445	    440.71742572	    -56.81869819	     31.19514786	    -13.96344919	    298.86332496	   -750.43240445	   -440.71742572	     56.81869819	     -8.28669157	     13.38685277	     -0.77251349	   -140.54170685	   -298.42420603	     99.12190274	     -6.34058504	      4.27351804	      3.96451919	    140.54170685	    298.42420603	    -99.12190274	     45.27221909	     -2.71362821	     55.93169973	      0.00000000	      0.00000000	      0.00000000	      0.00000000	      0.00000000	      0.00000000	      0.00000000	      0.00000000	      0.00000000	      0.00000000	      0.00000000	      0.00000000	     27.94121425	     18.32843857	    828.12673334	    530.04984701	      0.00000000	      0.00000000	      0.00000000	    -19.67315448	      0.00000000	      0.00000000	      0.00000000	      0.00000000	      0.00000001	      0.00000000
      0.17222996	     11.07136200	      8.08722040	      8.69490658	      3.73881329	      4.35372473	      4.68773531	      0.00000000	    166.26400721	    173.71895588	    333.92054125	    126.07693982	      8.04591534	      5.80456903	      4.05719159	      3.52450908	      5.92637665	      6.19302380	      3.15518444	     97.57240585	      5.22117300	      7.94216293	      5.96545546	     27.07125733	     17.98652124	      5.13788534	      3.57753090	      6.14981786	     51.47315541	     29.50928043	     31.67933204	     42.96515499	      0.00000000	      0.00000000	      0.00000000	      0.00000000	      0.00000000	      0.00000000	     38.06067725	      3.78109264	      4.49387382	      9.49327972	     38.55419035	      9.89103238	     11.07136200	      8.08722040	      8.69490658	      3.73881329	      4.35372473	      4.68773531	      0.00000000	      5.98094037	     11.80834985	     10.22594039	      2.13358105	      8.04591534	      5.80456903	      4.05719159	      3.52450908	      5.92637665	      5.29680121	      3.15518444	      2.20137511	      5.22117300	      7.94216293	      5.96545546	     27.07125733	     17.98652124	      5.13788534	      3.57753090	      6.14981786	     16.40647766	      0.00000000	      0.00000000	      0.00000000	     20.95048422	      9.87273562	     49.28622445	     50.20079416	      5.26908585	      4.70643173	     12.78987918	      6.82811135	     17.70424131	      2.78127121	      8.53931954	      2.69041651	     35.18989778	     35.18989778	     13.04333278	     13.04333278	     30.44774747	     30.44774747	    428.90978596	    312.45038422	    110.55480910	    -52.06920642	     10.68312786	    171.79847142	   -428.90978596	   -312.45038422	   -110.55480910	     10.05894227	    -13.71026980	     -0.25961913	    745.32508540	    436.96469883	    -56.77359428	     31.09530852	    -13.84488022	    296.81394367	   -745.32508540	   -436.96469883	     56.77359428	     -8.21371166	     13.28547720	     -0.72931174	   -142.25150623	   -299.44547411	     99.54953907	     -6.36143821	      4.31174679	      3.96760526	    142.25150623	    299.44547411	    -99.54953907	     45.46127771	     -2.74290593	     56.62326652	      0.00000000	      0.00000000	      0.00000000	      0.00000000	      0.00000000	      0.00000000	      0.00000000	      0.00000000	      0.00000000	      0.00000000	      0.00000000	      0.00000000	     27.82632610	     18.26326711	    829.89272064	    530.50278104	      0.00000000	      0.00000000	      0.00000000	    -20.46771360	      0.00000000	      0.00000000	      0.00000000	      0.00000000	      0.00000001	      0.00000000
      0.17227276	     11.06943479	      8.08585567	      8.69342157	      3.73820838	      4.35306339	      4.68689003	      0.00000000	    166.25334341	    173.69674113	    333.85120903	    126.06356700	      8.04454185	      5.80363865	      4.05732145	      3.52390335	      5.92527873	      6.19111774	      3.15467033	     97.56094421	      5.22028873	      7.94081468	      5.96442674	     27.06874589	     17.98365795	      5.13703591	      3.57711705	      6.14925225	     51.50325051	     29.50766473	     31.67773644	     42.96298214	      0.00000000	      0.00000000	      0.00000000	      0.00000000	      0.00000000	      0.00000000	     38.06690020	      3.78210530	      4.49724052	     14.39948660	     38.57652570	      9.89604731	     11.06943479	      8.08585567	      8.69342157	      3.73820838	      4.35306339	      4.68689003	      0.00000000	      5.97986563	     11.80619368	     10.22424789	      2.13323747	      8.04454185	      5.80363865	      4.05732145	      3.52390335	      5.92527873	      5.29612383	      3.15467033	      2.20101437	      5.22028873	      7.94081468	      5.96442674	     27.06874589	     17.98365795	      5.13703591	      3.57711705	      6.14925225	     16.40329121	      0.00000000	      0.00000000	      0.00000000	     20.94908788	      9.87194226	     49.27799366	     50.19667559	      5.26801000	      4.70540160	     12.78750760	      6.82677205	     17.70167269	      2.78083001	      8.53796797	      2.69004759	     35.18419152	     35.18419152	     13.04104541	     13.04104541	     30.44567631	     30.44567631	    429.91837755	    313.59795459	    110.85554318	    -52.21724508	     10.70921305	    172.19502999	   -429.91837755	   -313.59795459	   -110.85554318	     10.09244602	    -13.74451850	     -0.24069827	    744.90224332	    433.27224688	    -59.32307553	     32.08819801	    -13.86421608	    296.67868841	   -744.90224332	   -433.27224688	     59.32307553	     -8.23031716	     13.35514816	     -0.82039368	   -142.51971346	   -299.60949800	     99.63384153	     -6.36518035	      4.31839850	      3.96892450	    142.51971346	    299.60949800	    -99.63384153	     45.49809130	     -2.74770407	     56.73139712	      0.00000000	      0.00000000	      0.00000000	      0.00000000	      0.00000000	      0.00000000	      0.00000000	      0.00000000	      0.00000000	      0.00000000	      0.00000000	      0.00000000	     27.84103198	     18.27683928	    830.20626899	    530.56495111	      0.00000000	      0.00000000	      0.00000000	    -20.57310322	      0.00000000	      0.00000000	      0.00000000	      0.00000000	      0.00000001	      0.00000000
